<svg width="1440" height="1024" viewBox="0 0 1440 1024" fill="none" xmlns="http://www.w3.org/2000/svg">
<g clip-path="url(#clip0_91_8)">
<mask id="mask0_91_8" style="mask-type:luminance" maskUnits="userSpaceOnUse" x="0" y="0" width="1440" height="1024">
<path d="M1440 0H0V1024H1440V0Z" fill="white"/>
</mask>
<g mask="url(#mask0_91_8)">
<path d="M720 -206.571C130.068 -1459.82 -1282.08 -621.549 -717.036 447.15C-433.72 983.005 183.03 1431.55 720 1949.87C1256.97 1431.55 1873.72 983.005 2157.04 447.15C2722.08 -621.549 1309.93 -1459.82 720 -206.571Z" fill="#D9BBED"/>
<path d="M720 -122.452C194.97 -1237.83 -1061.82 -491.778 -558.939 459.35C-306.793 936.252 242.104 1335.45 720 1796.75C1197.9 1335.45 1746.79 936.254 1998.94 459.35C2501.82 -491.778 1245.03 -1237.83 720 -122.452Z" fill="#D9BBED"/>
<path d="M720 -38.3321C259.872 -1015.83 -841.557 -362.004 -400.842 471.548C-179.866 889.5 301.181 1239.35 720 1643.62C1138.82 1239.35 1619.87 889.5 1840.84 471.548C2281.56 -362.004 1180.13 -1015.83 720 -38.3321Z" fill="#7365A1"/>
<path d="M720 45.7851C324.774 -793.836 -621.297 -232.231 -242.745 483.748C-52.9381 842.746 360.256 1143.25 720 1490.5C1079.74 1143.25 1492.94 842.744 1682.75 483.746C2061.3 -232.231 1115.23 -793.836 720 45.7851Z" fill="#8172B3"/>
<path d="M720 102.746C368.723 -643.512 -472.151 -144.357 -135.692 492.007C33.0106 811.086 400.259 1078.18 720 1386.81C1039.74 1078.18 1406.99 811.086 1575.69 492.007C1912.15 -144.357 1071.28 -643.512 720 102.746Z" fill="#CCB0E3"/>
<path d="M719.06 136.975C404.005 -532.332 -350.159 -84.6474 -48.3964 486.097C102.911 772.273 432.289 1011.82 719.06 1288.63C1005.83 1011.82 1335.21 772.273 1486.52 486.097C1788.28 -84.6474 1034.11 -532.332 719.06 136.975Z" fill="#685C91"/>
<path d="M720 212.504C453.406 -353.85 -184.752 24.9731 70.5946 507.924C198.626 750.082 477.339 952.783 720 1187.01C962.659 952.783 1241.37 750.082 1369.41 507.924C1624.75 24.9731 986.594 -353.85 720 212.504Z" fill="#7E6FB0"/>
<path d="M720 275.315C501.869 -188.086 -20.2867 121.872 188.644 517.034C293.403 715.172 521.451 881.025 720 1072.68C918.549 881.023 1146.6 715.17 1251.36 517.034C1460.29 121.872 938.131 -188.086 720 275.315Z" fill="#CCB0E3"/>
<path d="M720 322.939C538.612 -62.4024 104.415 195.345 278.15 523.942C365.263 688.702 554.895 826.618 720 985.987C885.105 826.618 1074.74 688.702 1161.85 523.942C1335.58 195.345 901.388 -62.4024 720 322.939Z" fill="#685C91"/>
<path d="M720 370.563C575.357 63.2812 229.115 268.814 367.657 530.848C437.122 662.233 588.342 772.211 720 899.295C851.658 772.211 1002.88 662.231 1072.34 530.848C1210.88 268.816 864.643 63.2812 720 370.563Z" fill="#8B7CC0"/>
<path d="M720 411.445C606.899 171.17 336.161 331.884 444.491 536.777C498.808 639.51 617.053 725.506 720 824.879C822.948 725.506 941.192 639.51 995.509 536.777C1103.84 331.884 833.101 171.17 720 411.445Z" fill="#CCB0E3"/>
<path d="M720 432.564C623.194 226.906 391.461 364.466 484.184 539.838C530.677 627.773 631.884 701.378 720 786.434C808.117 701.378 909.324 627.773 955.816 539.838C1048.54 364.466 816.807 226.906 720 432.564Z" fill="#685C91"/>
<path d="M720 464.013C647.459 309.905 473.81 412.985 543.293 544.399C578.131 610.291 653.971 665.448 720 729.184C786.029 665.448 861.869 610.291 896.707 544.399C966.19 412.985 792.541 309.905 720 464.013Z" fill="#D9BBED"/>
<path d="M720 495.464C671.723 392.905 556.161 461.504 602.4 548.962C625.586 592.814 676.057 629.52 720 671.936C763.943 629.52 814.414 592.814 837.6 548.962C883.839 461.504 768.276 392.905 720 495.464Z" fill="#9990C8"/>
<path d="M720 526.913C695.988 475.902 638.509 510.021 661.509 553.521C673.041 575.332 698.145 593.588 720 614.687C741.855 593.59 766.959 575.332 778.491 553.521C801.491 510.023 744.011 475.902 720 526.913Z" fill="#7E6FB0"/>
</g>
</g>
<defs>
<clipPath id="clip0_91_8">
<rect width="1440" height="1024" fill="white"/>
</clipPath>
</defs>
</svg>
