<svg width="1461" height="1024" viewBox="0 0 1461 1024" fill="none" xmlns="http://www.w3.org/2000/svg">
<g clip-path="url(#clip0_91_36)">
<mask id="mask0_91_36" style="mask-type:luminance" maskUnits="userSpaceOnUse" x="0" y="0" width="1461" height="1024">
<path d="M1461 0H0V1024H1461V0Z" fill="white"/>
</mask>
<g mask="url(#mask0_91_36)">
<path d="M730.5 -206.571C131.965 -1459.82 -1300.78 -621.549 -727.492 447.15C-440.045 983.005 185.699 1431.55 730.5 1949.87C1275.3 1431.55 1901.05 983.005 2188.49 447.15C2761.77 -621.549 1329.03 -1459.82 730.5 -206.571Z" fill="#E16CCB"/>
<path d="M730.5 -122.452C197.814 -1237.83 -1077.3 -491.778 -567.09 459.35C-311.267 936.252 245.635 1335.45 730.5 1796.75C1215.37 1335.45 1772.27 936.254 2028.09 459.35C2538.3 -491.778 1263.18 -1237.83 730.5 -122.452Z" fill="#E579D2"/>
<path d="M730.5 -38.3321C263.662 -1015.83 -853.83 -362.004 -406.688 471.548C-182.489 889.5 305.573 1239.35 730.5 1643.62C1155.43 1239.35 1643.49 889.5 1867.69 471.548C2314.83 -362.004 1197.34 -1015.83 730.5 -38.3321Z" fill="#EA85DA"/>
<path d="M730.5 45.7851C329.51 -793.836 -630.357 -232.231 -246.286 483.748C-53.7103 842.746 365.509 1143.25 730.5 1490.5C1095.49 1143.25 1514.71 842.744 1707.29 483.746C2091.36 -232.231 1131.49 -793.836 730.5 45.7851Z" fill="#EE92E1"/>
<path d="M730.5 102.746C374.1 -643.512 -479.037 -144.357 -137.671 492.007C33.4918 811.086 406.095 1078.18 730.5 1386.81C1054.9 1078.18 1427.51 811.086 1598.67 492.007C1940.04 -144.357 1086.9 -643.512 730.5 102.746Z" fill="#FFC2FC"/>
<path d="M730.5 149.695C410.851 -519.612 -354.312 -71.9276 -48.1489 498.817C105.365 784.992 439.547 1024.54 730.5 1301.35C1021.45 1024.54 1355.63 784.992 1509.15 498.817C1815.31 -71.9276 1050.15 -519.612 730.5 149.695Z" fill="#EE92E1"/>
<path d="M730.5 212.504C460.018 -353.85 -187.446 24.9731 71.6239 507.924C201.522 750.082 484.3 952.783 730.5 1187.01C976.698 952.783 1259.48 750.082 1389.38 507.924C1648.45 24.9731 1000.98 -353.85 730.5 212.504Z" fill="#E87FD6"/>
<path d="M730.5 275.315C509.188 -188.086 -20.5828 121.872 191.395 517.034C297.681 715.172 529.055 881.025 730.5 1072.68C931.944 881.023 1163.32 715.17 1269.6 517.034C1481.58 121.872 951.812 -188.086 730.5 275.315Z" fill="#E16CCB"/>
<path d="M730.5 322.939C546.466 -62.4024 105.938 195.345 282.207 523.942C370.589 688.702 562.987 826.618 730.5 985.987C898.012 826.618 1090.41 688.702 1178.79 523.942C1355.06 195.345 914.533 -62.4024 730.5 322.939Z" fill="#EB89DB"/>
<path d="M730.5 370.563C583.747 63.2812 232.457 268.814 373.019 530.848C443.497 662.233 596.922 772.211 730.5 899.295C864.078 772.211 1017.5 662.231 1087.98 530.848C1228.54 268.816 877.252 63.2812 730.5 370.563Z" fill="#F5A5EC"/>
<path d="M730.5 411.445C615.749 171.17 341.063 331.884 450.974 536.777C506.082 639.51 626.052 725.506 730.5 824.879C834.95 725.506 954.917 639.51 1010.03 536.777C1119.94 331.884 845.251 171.17 730.5 411.445Z" fill="#FFC2FC"/>
<path d="M730.5 432.564C632.282 226.906 397.17 364.466 491.245 539.838C538.416 627.773 641.098 701.378 730.5 786.434C819.902 701.378 922.585 627.773 969.755 539.838C1063.83 364.466 828.718 226.906 730.5 432.564Z" fill="#E16CCB"/>
<path d="M730.5 464.013C656.901 309.905 480.72 412.985 551.216 544.399C586.562 610.291 663.508 665.448 730.5 729.184C797.492 665.448 874.438 610.291 909.784 544.399C980.28 412.985 804.099 309.905 730.5 464.013Z" fill="#EB89DB"/>
<path d="M730.5 495.464C681.519 392.905 564.271 461.504 611.185 548.962C634.709 592.814 685.916 629.52 730.5 671.936C775.084 629.52 826.291 592.814 849.815 548.962C896.729 461.504 779.48 392.905 730.5 495.464Z" fill="#F5A5EC"/>
<path d="M730.5 526.913C706.138 475.902 647.821 510.021 671.156 553.521C682.856 575.332 708.326 593.588 730.5 614.687C752.674 593.59 778.144 575.332 789.844 553.521C813.179 510.023 754.862 475.902 730.5 526.913Z" fill="#FFC2FC"/>
</g>
</g>
<defs>
<clipPath id="clip0_91_36">
<rect width="1461" height="1024" fill="white"/>
</clipPath>
</defs>
</svg>
